<svg xmlns="http://www.w3.org/2000/svg" width="323.723" height="108.405" viewBox="0 0 323.723 108.405"><g transform="translate(-54.902 -7.799)"><text transform="translate(70.778 70.799)" fill="#e40080" font-size="65" font-family="Montserrat-SemiBold, Montserrat" font-weight="600"><tspan x="0" y="0">t</tspan></text><text transform="translate(138.778 70.799)" fill="#e40080" font-size="65" font-family="Montserrat-SemiBold, Montserrat" font-weight="600"><tspan x="0" y="0">mcash</tspan></text><g transform="translate(72 -0.831)"><ellipse cx="18" cy="19.5" rx="18" ry="19.5" transform="translate(28.778 34.63)" fill="#e40080"/><g transform="translate(28.778 34.63)"><path d="M14.372,38.6a16.9,16.9,0,0,1-3.379-1.136,17.609,17.609,0,0,1-3.057-1.8,18.523,18.523,0,0,1-2.664-2.381,19.383,19.383,0,0,1-2.2-2.886,20.066,20.066,0,0,1-1.66-3.312A20.618,20.618,0,0,1,.366,23.43a21.3,21.3,0,0,1,0-7.86,20.618,20.618,0,0,1,1.049-3.66A20.066,20.066,0,0,1,3.074,8.6a19.384,19.384,0,0,1,2.2-2.886A18.524,18.524,0,0,1,7.936,3.33a17.62,17.62,0,0,1,3.057-1.8,16.777,16.777,0,0,1,14.013,0,17.618,17.618,0,0,1,3.057,1.8,18.521,18.521,0,0,1,2.664,2.381,19.38,19.38,0,0,1,2.2,2.886,20.058,20.058,0,0,1,1.66,3.312,20.606,20.606,0,0,1,1.049,3.66,21.3,21.3,0,0,1,0,7.86,20.606,20.606,0,0,1-1.049,3.66,20.058,20.058,0,0,1-1.66,3.312,19.38,19.38,0,0,1-2.2,2.886,18.521,18.521,0,0,1-2.664,2.381,17.607,17.607,0,0,1-3.057,1.8A16.788,16.788,0,0,1,14.372,38.6Zm3.192-4.15v-10.6s-1.378,2.1-3.3,1.959-3.053-.971-3.315-2.948.449-3.613,3.233-4.882a11.032,11.032,0,0,0,3.352-2.169,22.817,22.817,0,0,1-4.547-.531A16.443,16.443,0,0,1,8.9,13.827,10.565,10.565,0,0,1,7.324,12.82a7.985,7.985,0,0,1-.606-.524,16.065,16.065,0,0,0-.643,1.563A2.821,2.821,0,1,1,6,19.5a2.923,2.923,0,0,1-.875-.133q0,.066,0,.133a17.256,17.256,0,0,0,.369,3.564,2.9,2.9,0,0,1,1.631-.5,2.818,2.818,0,0,1,.394,5.615,14.371,14.371,0,0,0,2.548,3.1,2.892,2.892,0,0,1,2.183-.985,2.848,2.848,0,0,1,2.875,2.821,2.769,2.769,0,0,1-.16.929A11.158,11.158,0,0,0,17.565,34.454Zm.987-.005a11.161,11.161,0,0,0,2.483-.406,2.769,2.769,0,0,1-.16-.929,2.848,2.848,0,0,1,2.875-2.821,2.892,2.892,0,0,1,2.183.985,14.371,14.371,0,0,0,2.548-3.1,2.818,2.818,0,0,1,.394-5.615,2.9,2.9,0,0,1,1.631.5,17.257,17.257,0,0,0,.369-3.564q0-.066,0-.133A2.924,2.924,0,0,1,30,19.5a2.821,2.821,0,1,1-.075-5.641,16.078,16.078,0,0,0-.643-1.563,8,8,0,0,1-.606.524A10.575,10.575,0,0,1,27.1,13.827a16.45,16.45,0,0,1-4.092,1.459,22.769,22.769,0,0,1-4.432.528,11.02,11.02,0,0,0,3.354,2.172c2.784,1.269,3.495,2.9,3.233,4.882s-1.394,2.812-3.315,2.948-3.3-1.959-3.3-1.959ZM15.5,10.425A2.5,2.5,0,1,0,18,7.972,2.48,2.48,0,0,0,15.5,10.425Zm6.679-3.016A2.81,2.81,0,0,0,23.27,9.121,2.887,2.887,0,0,0,25,9.689a2.921,2.921,0,0,0,1.137-.228,2.847,2.847,0,0,0,.905-.6A12.856,12.856,0,0,0,22.5,5.479,2.769,2.769,0,0,0,22.179,7.409ZM9.866,9.46a2.923,2.923,0,0,0,2.865-.339,2.809,2.809,0,0,0,1.091-1.712,2.77,2.77,0,0,0-.319-1.93A12.861,12.861,0,0,0,8.96,8.856,2.837,2.837,0,0,0,9.866,9.46Z" transform="translate(0 0)" fill="#170036"/></g></g></g><path d="M90.206,16a6.11,6.11,0,0,0-3.152-5.342,5.47,5.47,0,0,0-2.742-9.54V1.053a1.053,1.053,0,0,0-2.105,0H79.049A1.053,1.053,0,0,0,78,2.105v8.841h0v10.1A1.053,1.053,0,0,0,79.049,22.1h3.158a1.053,1.053,0,0,0,2.105,0v0A6.112,6.112,0,0,0,90.206,16ZM86.838,6.526a3.374,3.374,0,0,1-2.526,3.262V3.265A3.374,3.374,0,0,1,86.838,6.526ZM80.1,3.158h2.105V9.894H80.1ZM80.1,12h2.105v8H80.1Zm4.21,7.993V12.006a4,4,0,0,1,0,7.988Z" transform="translate(233.517 85.114)" fill="#170036"/><g transform="translate(280.497 84.828)"><path d="M35.06,180.01a1.072,1.072,0,0,0-1.072,1.072v3.164H31.794v-3.164a1.072,1.072,0,0,0-2.143,0v8.573a1.072,1.072,0,1,0,2.143,0V186.39h2.194v3.265a1.072,1.072,0,1,0,2.143,0v-8.573A1.072,1.072,0,0,0,35.06,180.01Z" transform="translate(-29.651 -167.57)" fill="#170036"/><path d="M160,0h-4.286a.149.149,0,0,0-.035,0h-4.252a1.062,1.062,0,0,0-1.072,1.053V22.1a1.072,1.072,0,0,0,2.143,0V12.73h5.365a1.053,1.053,0,1,0,0-2.105H152.5V2.106H160a1.062,1.062,0,0,0,1.072-1.052A1.062,1.062,0,0,0,160,0Z" transform="translate(-142.081 0)" fill="#170036"/><path d="M32.866,10.734a3.219,3.219,0,0,0,3.215-3.215,1.072,1.072,0,1,0-2.143,0,1.072,1.072,0,0,1-2.143,0V3.233a1.072,1.072,0,0,1,2.143,0,1.072,1.072,0,1,0,2.143,0,3.215,3.215,0,1,0-6.43,0V7.519A3.218,3.218,0,0,0,32.866,10.734Z" transform="translate(-29.651 -0.017)" fill="#170036"/></g><g transform="translate(248.516 84.828)"><path d="M38.357,62.333a1.167,1.167,0,0,0,0-2.333H21.124a1.167,1.167,0,0,0,0,2.333h4.87v8.942a4.97,4.97,0,0,1-4.87,5.054,1.167,1.167,0,0,0,0,2.333,7.264,7.264,0,0,0,7.118-7.387V62.333h5.245V73.607a4.97,4.97,0,0,0,4.87,5.054,1.167,1.167,0,0,0,0-2.333,2.676,2.676,0,0,1-2.622-2.721V62.333Z" transform="translate(-20 -55.504)" fill="#170036"/><path d="M21.124,2.248H38.357a1.124,1.124,0,0,0,0-2.248H21.124a1.124,1.124,0,1,0,0,2.248Z" transform="translate(-20)" fill="#170036"/></g><g transform="translate(207.228 84.828)"><path d="M12.616,35.692a6.4,6.4,0,0,0-6.308-6.474H1.258A1.275,1.275,0,0,0,0,30.51V51a1.275,1.275,0,0,0,1.258,1.291A1.275,1.275,0,0,0,2.516,51V42.167H6.346A3.848,3.848,0,0,1,10.1,46.058V51a1.259,1.259,0,1,0,2.516,0V46.058a6.526,6.526,0,0,0-2.532-5.183A6.526,6.526,0,0,0,12.616,35.692ZM6.308,39.584H2.516V31.8H6.343a3.893,3.893,0,0,1-.035,7.783Z" transform="translate(0 -29.218)" fill="#170036"/><path d="M186.184,92.075a6.15,6.15,0,0,0-3.669,1.21,1.257,1.257,0,0,0-2.514.048v14.775a1.258,1.258,0,1,0,2.516,0v-4.875a6.182,6.182,0,1,0,3.667-11.158Zm0,9.85a3.667,3.667,0,1,1,3.667-3.667A3.671,3.671,0,0,1,186.184,101.925Z" transform="translate(-164.18 -86.21)" fill="#170036"/></g><path d="M86.578,16.841a1.053,1.053,0,0,0-1.053,1.053,3.158,3.158,0,0,1-6.315,0V14.736h5.263a1.053,1.053,0,1,0,0-2.105H79.21V10.526h5.263a1.053,1.053,0,1,0,0-2.105H79.21V5.263a3.158,3.158,0,0,1,6.315,0,1.053,1.053,0,0,0,2.105,0,5.263,5.263,0,1,0-10.526,0V8.421H76.053a1.053,1.053,0,0,0,0,2.105h1.053v2.105H76.053a1.053,1.053,0,0,0,0,2.105h1.053v3.158a5.263,5.263,0,0,0,10.526,0A1.053,1.053,0,0,0,86.578,16.841Z" transform="translate(105.554 85.114)" fill="#170036"/><g transform="translate(154.327 84.961)"><g transform="translate(0 0)"><path d="M117.234,10.131V4.986A6.86,6.86,0,0,1,120.26,6.3a1.083,1.083,0,0,0,.6.19,1.257,1.257,0,0,0,1.257-1.242,1.116,1.116,0,0,0-.322-.789,7.713,7.713,0,0,0-4.575-1.842V.893A.891.891,0,0,0,116.327,0H116.3a.906.906,0,0,0-.919.893V2.559c-3.289.234-5.525,2.266-5.525,4.97,0,3.318,2.821,4.239,5.525,4.97v5.847a7.587,7.587,0,0,1-3.874-1.71,1.217,1.217,0,0,0-.731-.263,1.272,1.272,0,0,0-1.184,1.286,1.116,1.116,0,0,0,.322.789,8.609,8.609,0,0,0,5.482,2.207v1.608c0,.01,0,.02,0,.031a.9.9,0,0,0,.949.861.891.891,0,0,0,.892-.892V20.627c3.991-.263,5.6-2.69,5.6-5.262C122.832,11.915,119.938,10.862,117.234,10.131Zm-1.842-.468c-1.593-.468-2.836-.95-2.836-2.31s1.126-2.339,2.836-2.47Zm1.842,8.712V13.055c1.652.468,2.938,1.1,2.923,2.631C120.157,16.8,119.4,18.112,117.234,18.375Z" transform="translate(-109.589 0)" fill="#170036"/></g></g><g transform="translate(122.31 85.248)"><path d="M156.588,10.631V4.391a3.16,3.16,0,0,1,2.079,2.977,1.04,1.04,0,1,0,2.079,0,5.256,5.256,0,0,0-4.158-5.157V1.053a1.04,1.04,0,1,0-2.079,0V2.21a5.277,5.277,0,0,0,0,10.314v6.241a3.16,3.16,0,0,1-2.079-2.977,1.04,1.04,0,1,0-2.079,0,5.256,5.256,0,0,0,4.158,5.157V22.1a1.04,1.04,0,1,0,2.079,0V20.945a5.277,5.277,0,0,0,0-10.314Zm-4.158-3.264a3.16,3.16,0,0,1,2.079-2.977v5.954A3.16,3.16,0,0,1,152.429,7.368Zm4.158,11.4V12.812a3.17,3.17,0,0,1,0,5.953Z" transform="translate(-141.749)" fill="#170036"/><path d="M34.888,0a1.04,1.04,0,0,0-1.04,1.04V4.207H31.72V1.04a1.04,1.04,0,1,0-2.079,0V9.356a1.04,1.04,0,0,0,2.079,0V6.287h2.128v3.07a1.04,1.04,0,1,0,2.079,0V1.04A1.04,1.04,0,0,0,34.888,0Z" transform="translate(-29.641)" fill="#170036"/><path d="M34.888,179.991a1.04,1.04,0,0,0-1.04,1.04v2.1a1.065,1.065,0,0,1-1.064,1.064H31.72v-3.167a1.04,1.04,0,1,0-2.079,0v8.317a1.04,1.04,0,1,0,2.079,0v-3.07H32.8a1.065,1.065,0,0,1,1.047,1.064v2.006a1.04,1.04,0,1,0,2.079,0v-2.006a3.131,3.131,0,0,0-.81-2.1,3.13,3.13,0,0,0,.81-2.1v-2.1A1.04,1.04,0,0,0,34.888,179.991Z" transform="translate(-29.641 -167.23)" fill="#170036"/></g><path d="M45.745,8.421H44.266a7.378,7.378,0,0,0,0-2.105h1.479a1.053,1.053,0,1,0,0-2.105H43.63A7.377,7.377,0,0,0,36.973,0H30.658a1.053,1.053,0,0,0-1.053,1.053h0V4.211H28.553a1.053,1.053,0,1,0,0,2.105h1.053V8.421H28.553a1.053,1.053,0,1,0,0,2.105h1.053V22.1a1.053,1.053,0,0,0,2.105,0V14.736h5.263a7.377,7.377,0,0,0,6.656-4.21h2.116a1.053,1.053,0,1,0,0-2.105ZM31.71,2.106h5.3a5.258,5.258,0,0,1,4.168,2.106H31.71Zm0,4.21H42.13a5.286,5.286,0,0,1,0,2.105H31.71Zm5.263,6.315H31.71v-2.1h9.47A5.258,5.258,0,0,1,36.973,12.631Z" transform="translate(62.794 85.114)" fill="#170036"/><path d="M82.368,0a5.269,5.269,0,0,0-5.263,5.263v5.263H76.053a1.053,1.053,0,0,0,0,2.105h1.053v8.421H76.053a1.053,1.053,0,0,0,0,2.105h8.421a1.053,1.053,0,1,0,0-2.105H79.21V12.631h5.263a1.053,1.053,0,1,0,0-2.105H79.21V5.263a3.158,3.158,0,0,1,6.315,0,1.053,1.053,0,0,0,2.105,0A5.269,5.269,0,0,0,82.368,0Z" transform="translate(-9.968 85.114)" fill="#170036"/><path d="M73.685,13.333H68.423V11.227h5.263a1.053,1.053,0,0,0,0-2.105H69.132l4.077-7.571a1.053,1.053,0,1,0-1.853-1l-3.985,7.4L63.385.554a1.053,1.053,0,0,0-1.854,1l4.077,7.571H61.055a1.053,1.053,0,1,0,0,2.105h5.263v2.105H61.055a1.053,1.053,0,1,0,0,2.105h5.263V22.1a1.053,1.053,0,0,0,2.105,0V15.438h5.263a1.053,1.053,0,0,0,0-2.105Z" transform="translate(-23.126 85.114)" fill="#170036"/><g transform="translate(0 85.114)"><path d="M186.05,10.635V4.395a3.157,3.157,0,0,1,2.017,2.977,1.009,1.009,0,1,0,2.017,0,5.221,5.221,0,0,0-4.033-5.157V1.057a1.009,1.009,0,1,0-2.017,0V2.214A5.221,5.221,0,0,0,180,7.372a5.221,5.221,0,0,0,4.033,5.157v6.24a3.157,3.157,0,0,1-2.017-2.977,1.009,1.009,0,1,0-2.017,0,5.221,5.221,0,0,0,4.033,5.157v1.158a1.009,1.009,0,1,0,2.017,0V20.95a5.314,5.314,0,0,0,0-10.314Zm-4.033-3.264a3.157,3.157,0,0,1,2.017-2.977v5.953A3.157,3.157,0,0,1,182.017,7.372Zm4.033,11.4V12.816a3.205,3.205,0,0,1,0,5.953Z" transform="translate(-166.926 -0.004)" fill="#170036"/><path d="M5.042,32.121a3.113,3.113,0,0,1,3.025,3.187,1.01,1.01,0,1,0,2.017,0A5.188,5.188,0,0,0,5.042,30a5.319,5.319,0,0,0,0,10.624,3.192,3.192,0,0,1,0,6.375,3.113,3.113,0,0,1-3.025-3.187,1.036,1.036,0,0,0-1.008-1.062A1.036,1.036,0,0,0,0,43.808,5.188,5.188,0,0,0,5.042,49.12a5.319,5.319,0,0,0,0-10.624,3.192,3.192,0,0,1,0-6.375Z" transform="translate(0 -27.98)" fill="#170036"/></g></svg>